<?xml version="1.0" encoding="UTF-8"?>
<svg version="1.1" xmlns="http://www.w3.org/2000/svg" width="1000" height="1001">
<path d="M0 0 C86.79 0 173.58 0 263 0 C259.14833069 7.70333861 255.27190638 15.23302337 251 22.6875 C249.85366906 24.70153978 248.70785384 26.71587315 247.5625 28.73046875 C246.97597656 29.76091309 246.38945313 30.79135742 245.78515625 31.85302734 C242.83380395 37.05583522 239.91764752 42.27824037 237 47.5 C231.98930539 56.46042308 226.95227536 65.40543644 221.89233398 74.33813477 C219.10200038 79.26793504 216.32403742 84.20416551 213.56640625 89.15234375 C207.78934366 99.51681239 201.95547508 109.83570099 195.9375 120.0625 C190.67568674 129.01073332 185.65908921 138.06674787 180.75146484 147.21337891 C176.81032994 154.54597357 172.73621193 161.79031299 168.58496094 169.00561523 C164.71889035 175.72831047 160.90959944 182.48111732 157.125 189.25 C156.54129639 190.29373779 155.95759277 191.33747559 155.35620117 192.4128418 C153.57007279 195.60815509 151.78486558 198.80398116 150 202 C142.89817328 214.71668428 135.77885082 227.42069856 128.53417969 240.05664062 C122.88016284 249.93157697 117.33573358 259.86761872 111.78662109 269.80175781 C103.85655451 283.99742224 95.90818285 298.18225927 87.89648438 312.33203125 C83.88745722 319.4170756 79.90867649 326.51868418 75.9375 333.625 C71.66298819 341.27214861 67.3581974 348.90023427 63 356.5 C56.8513503 367.2240317 50.81493734 378.00973795 44.78662109 388.80175781 C36.85655451 402.99742224 28.90818285 417.18225927 20.89648438 431.33203125 C16.88745722 438.4170756 12.90867649 445.51868418 8.9375 452.625 C4.66298819 460.27214861 0.3581974 467.90023427 -4 475.5 C-11.37095145 488.35588234 -18.58741903 501.29801076 -25.80712891 514.23925781 C-29.85820399 521.50030885 -33.92143701 528.75435264 -38 536 C-38.51755859 536.92200195 -39.03511719 537.84400391 -39.56835938 538.79394531 C-49.62576916 556.66438818 -58.53204155 570.16757261 -79 577 C-82.93817027 577.95712864 -86.62246965 578.13244079 -90.67066956 578.14717102 C-91.32801037 578.15084771 -91.98535119 578.1545244 -92.66261142 578.1583125 C-94.857846 578.16929561 -97.05303315 578.17318403 -99.24829102 578.17700195 C-100.82559864 578.18327079 -102.40290479 578.18991796 -103.98020935 578.19691467 C-109.15476461 578.21791192 -114.32932001 578.22831474 -119.50390625 578.23828125 C-121.28947401 578.24233078 -123.07504161 578.24644776 -124.86060905 578.25063133 C-133.25301947 578.26967547 -141.64542115 578.28390671 -150.03784901 578.2922433 C-159.70425899 578.3020055 -169.37043936 578.32830166 -179.0367685 578.36874419 C-186.5214979 578.39897722 -194.00616176 578.41371907 -201.490951 578.41702431 C-205.9548465 578.41936707 -210.4184965 578.42822583 -214.88232613 578.45348549 C-219.08738318 578.47689669 -223.29203536 578.48094752 -227.49714088 578.47072411 C-229.03211063 578.47023175 -230.56710119 578.47646265 -232.10200882 578.49028015 C-248.40727974 578.62873246 -261.97292709 574.20165287 -274.12109375 563.03515625 C-283.29817314 553.09491017 -288.08077372 540.34868273 -288.25 526.9375 C-288.27578125 525.72964844 -288.3015625 524.52179687 -288.328125 523.27734375 C-287.88356815 513.07612995 -284.1083783 504.42702323 -279.125 495.6875 C-278.26442993 494.13953735 -278.26442993 494.13953735 -277.38647461 492.56030273 C-275.60528952 489.36525488 -273.80458208 486.18188028 -272 483 C-270.91477677 481.07064301 -269.83012291 479.14096564 -268.74609375 477.2109375 C-266.61279057 473.42083318 -264.46984439 469.63639068 -262.3203125 465.85546875 C-258.83000849 459.71166268 -255.38300793 453.54400535 -251.9375 447.375 C-247.66318619 439.7277423 -243.35819608 432.09976344 -239 424.5 C-232.8513503 413.7759683 -226.81493734 402.99026205 -220.78662109 392.19824219 C-212.85655451 378.00257776 -204.90818285 363.81774073 -196.89648438 349.66796875 C-192.88745722 342.5829244 -188.90867649 335.48131582 -184.9375 328.375 C-180.66298819 320.72785139 -176.3581974 313.09976573 -172 305.5 C-165.8513503 294.7759683 -159.81493734 283.99026205 -153.78662109 273.19824219 C-143.70867411 255.15764292 -133.57655402 237.14860606 -123.39550781 219.16601562 C-116.64416074 207.23931983 -109.92035813 195.29784747 -103.23071289 183.33642578 C-98.80818154 175.43261404 -94.35644508 167.54569131 -89.89453125 159.6640625 C-85.90963216 152.62053626 -81.95014936 145.56306546 -78 138.5 C-70.83966109 125.69863155 -63.62203755 112.9300992 -56.39550781 100.16601562 C-49.64416074 88.23931983 -42.92035813 76.29784747 -36.23071289 64.33642578 C-31.81474733 56.44434821 -27.36986702 48.56899375 -22.91430664 40.69921875 C-18.13895283 32.25899065 -13.39919518 23.79901533 -8.66796875 15.33398438 C-8.11625 14.34720703 -7.56453125 13.36042969 -6.99609375 12.34375 C-6.27184204 11.04727539 -6.27184204 11.04727539 -5.53295898 9.72460938 C-3.70420418 6.47426639 -1.85034374 3.23810155 0 0 Z " fill="#545454" transform="translate(353,334)"/>
<path d="M0 0 C0.66 0 1.32 0 2 0 C2.41660889 0.75804932 2.83321777 1.51609863 3.26245117 2.29711914 C10.84242294 16.08200404 18.44072645 29.85398994 26.20605469 43.53564453 C29.55420552 49.43560139 32.87330345 55.35083666 36.17553711 61.27661133 C41.37222981 70.59926345 46.64945024 79.86369622 52.0625 89.0625 C57.32431326 98.01073332 62.34091079 107.06674787 67.24853516 116.21337891 C71.18967006 123.54597357 75.26378807 130.79031299 79.41503906 138.00561523 C83.28111057 144.72831207 87.0902713 151.48118852 90.875 158.25 C91.46015381 159.29591309 92.04530762 160.34182617 92.64819336 161.41943359 C95.60662715 166.71031492 98.55952729 172.00423872 101.5078125 177.30078125 C107.2577747 187.61696082 113.0736225 197.88290256 119.0625 208.0625 C124.32421845 217.01079144 129.34090858 226.06674374 134.24853516 235.21337891 C138.18967006 242.54597357 142.26378807 249.79031299 146.41503906 257.00561523 C150.28110965 263.72831047 154.09040056 270.48111732 157.875 277.25 C158.45870361 278.29373779 159.04240723 279.33747559 159.64379883 280.4128418 C162.02735474 284.67692939 164.40914493 288.94200216 166.79101562 293.20703125 C172.81788073 303.99610779 178.85309457 314.77874856 185 325.5 C191.14853715 336.22409743 197.18506173 347.00973629 203.21337891 357.80175781 C206.16058535 363.07757149 209.11089729 368.35164478 212.0625 373.625 C212.64241699 374.66108398 213.22233398 375.69716797 213.81982422 376.76464844 C218.22677152 384.63234916 222.66033137 392.4847509 227.10351562 400.33203125 C231.11254278 407.4170756 235.09132351 414.51868418 239.0625 421.625 C243.33701181 429.27214861 247.6418026 436.90023427 252 444.5 C256.92986156 453.09830927 261.79688644 461.7304462 266.62426758 470.38671875 C269.68904602 475.88200787 272.77298963 481.36484348 275.89453125 486.828125 C276.52955566 487.94541992 277.16458008 489.06271484 277.81884766 490.21386719 C279.02964643 492.34312659 280.24640449 494.46901271 281.47021484 496.59082031 C289.29074326 510.38959621 292.37612864 524.4949211 288.875 540.25 C284.95554134 553.83138 276.89384434 564.25634992 264.81640625 571.49609375 C257.15842123 575.58530905 250.15168622 578.11552091 241.45631409 578.14717102 C240.80053326 578.15084771 240.14475243 578.1545244 239.46909946 578.1583125 C237.27309283 578.16931942 235.07713357 578.17318816 232.88110352 578.17700195 C231.30556591 578.18326914 229.73002977 578.18991617 228.15449524 578.19691467 C222.97930934 578.21793686 217.80412322 578.22831915 212.62890625 578.23828125 C210.84367292 578.24233027 209.05843973 578.24644724 207.27320671 578.25063133 C198.88025687 578.26968334 190.48731579 578.28391123 182.09434849 578.2922433 C172.42793834 578.30199934 162.76175819 578.328276 153.095429 578.36874419 C145.61155339 578.39899218 138.12774334 578.4137206 130.64380783 578.41702431 C126.18042441 578.41936599 121.71728665 578.42820992 117.25396919 578.45348549 C113.04728083 578.476922 108.84099713 578.48093755 104.63426018 578.47072411 C103.09971132 578.4702323 101.56514149 578.4764464 100.03065491 578.49028015 C83.09064487 578.6343115 69.74418135 574.3150845 57 563 C48.26303579 552.73112106 42.34882172 540.08792769 35.91581726 528.32040405 C32.60933551 522.27423958 29.24698264 516.25985754 25.875 510.25 C25.29991699 509.22374512 24.72483398 508.19749023 24.13232422 507.14013672 C18.11648172 496.4107806 12.06033992 485.70426443 6 475 C-1.28700801 462.1290948 -8.54975233 449.24531658 -15.76928711 436.33642578 C-19.66137612 429.38060424 -23.57324817 422.43630615 -27.5 415.5 C-32.022008 407.51221945 -36.51959508 399.51118905 -41 391.5 C-47.63040428 379.64605716 -54.30830048 367.81942301 -61 356 C-68.28700801 343.1290948 -75.54975233 330.24531658 -82.76928711 317.33642578 C-86.66137612 310.38060424 -90.57324817 303.43630615 -94.5 296.5 C-99.02200828 288.51221894 -103.51950749 280.51114042 -108 272.5 C-112.73648727 264.03402654 -117.48312724 255.57390788 -122.25 247.125 C-122.79914062 246.14982422 -123.34828125 245.17464844 -123.9140625 244.16992188 C-124.42195312 243.27080078 -124.92984375 242.37167969 -125.453125 241.4453125 C-125.89817383 240.65656738 -126.34322266 239.86782227 -126.80175781 239.05517578 C-127.80608413 237.33259654 -128.89393969 235.65909047 -130 234 C-129.65559798 230.45533594 -128.56039238 227.84229283 -126.76953125 224.796875 C-126.30361572 223.99459473 -125.8377002 223.19231445 -125.35766602 222.36572266 C-124.59280884 221.07093994 -124.59280884 221.07093994 -123.8125 219.75 C-122.71241106 217.85742756 -121.61350144 215.96416926 -120.515625 214.0703125 C-119.6503418 212.58192871 -119.6503418 212.58192871 -118.76757812 211.06347656 C-115.81481479 205.94589724 -112.94021299 200.78503708 -110.0625 195.625 C-105.56295143 187.57116022 -101.04557477 179.52795435 -96.5 171.5 C-91.97792341 163.51225893 -87.4803488 155.51121971 -83 147.5 C-77.98940497 138.5406579 -72.95170949 129.59718026 -67.89453125 120.6640625 C-63.90963216 113.62053626 -59.95014936 106.56306546 -56 99.5 C-48.83966109 86.69863155 -41.62203755 73.9300992 -34.39550781 61.16601562 C-26.9821109 48.06976552 -19.60509313 34.9537719 -12.2578125 21.8203125 C-8.18444578 14.53979589 -4.09465731 7.26855835 0 0 Z " fill="#545454" transform="translate(645,334)"/>
<path d="M0 0 C1.4801384 0.17338106 2.96028174 0.34671998 4.44042969 0.52001953 C73.71899769 8.75735766 140.15351628 28.85629293 203 59 C203.88010742 59.41813965 204.76021484 59.8362793 205.66699219 60.26708984 C218.9728893 66.6135686 231.67709153 73.86712272 244.33544922 81.41357422 C246.62536199 82.77694724 248.92154388 84.12831921 251.22265625 85.47265625 C289.95692279 108.20436513 289.95692279 108.20436513 296.375 128.875 C298.88421939 141.31762396 297.08094514 155.30674661 290 166 C281.46257993 177.01103877 271.25767458 184.56122523 257.12616217 186.3672877 C254.17059908 186.50775133 251.23946501 186.53051021 248.28071594 186.50336456 C247.15951508 186.50917833 246.03831423 186.51499209 244.88313758 186.52098203 C241.14102659 186.53553371 237.39957647 186.52171855 233.6574707 186.50793457 C230.94153515 186.51032877 228.22562544 186.51873591 225.50970173 186.52684355 C219.61242524 186.54125382 213.71529537 186.54087465 207.81801224 186.53065491 C199.04844242 186.51549905 190.27899584 186.52327333 181.5094268 186.53548814 C165.84528296 186.55653455 150.18120444 186.55473214 134.51705441 186.54317249 C120.80902089 186.53310618 107.10101131 186.53048536 93.39297485 186.53526306 C92.02850014 186.53572137 92.02850014 186.53572137 90.63646028 186.53618894 C86.9437996 186.53743432 83.25113894 186.53870792 79.55847828 186.540028 C44.92576702 186.55226117 10.29309733 186.54117463 -24.33960752 186.51964041 C-55.10175281 186.5006583 -85.86383186 186.50235682 -116.62597656 186.52148438 C-151.19576057 186.54290768 -185.76550786 186.55139356 -220.33529758 186.53903532 C-224.02119 186.53775247 -227.70708242 186.53650111 -231.39297485 186.53526306 C-232.30052079 186.53494675 -233.20806672 186.53463044 -234.14311405 186.53430455 C-247.84178786 186.52975663 -261.5404351 186.53507208 -275.23910522 186.54518127 C-290.81671993 186.55661982 -306.39425916 186.55375576 -321.97186446 186.5320583 C-330.6877428 186.5203184 -339.40345767 186.51953876 -348.11933174 186.534643 C-353.94399537 186.54362283 -359.76852814 186.53801179 -365.5931724 186.52062392 C-368.91005887 186.5111247 -372.22635517 186.51003005 -375.54327238 186.52224785 C-379.12273098 186.53442154 -382.7013034 186.52192489 -386.28071594 186.50336456 C-387.81177339 186.51741156 -387.81177339 186.51741156 -389.3737613 186.53174233 C-402.43859541 186.3964567 -413.31656297 181.53097603 -422.75 172.625 C-432.3350222 162.50747657 -435.40627571 150.45064471 -435.27734375 136.76953125 C-434.2388213 122.65440221 -427.33411821 112.17440523 -417 103 C-413.32629542 100.28342517 -409.50285325 97.85102319 -405.625 95.4375 C-404.53429199 94.75059082 -403.44358398 94.06368164 -402.31982422 93.35595703 C-321.85426122 42.91680212 -232.44185239 10.60652831 -138 0 C-136.07921631 -0.22647217 -136.07921631 -0.22647217 -134.11962891 -0.45751953 C-90.23283954 -5.53533268 -43.84825179 -5.29379028 0 0 Z " fill="#FBD008" transform="translate(569,93)"/>
</svg>
